<?xml version="1.0" encoding="UTF-8" standalone="no"?>
<!-- Created with Inkscape (http://www.inkscape.org/) -->

<svg
   xmlns:dc="http://purl.org/dc/elements/1.1/"
   xmlns:cc="http://creativecommons.org/ns#"
   xmlns:rdf="http://www.w3.org/1999/02/22-rdf-syntax-ns#"
   xmlns:svg="http://www.w3.org/2000/svg"
   xmlns="http://www.w3.org/2000/svg"
   xmlns:sodipodi="http://sodipodi.sourceforge.net/DTD/sodipodi-0.dtd"
   xmlns:inkscape="http://www.inkscape.org/namespaces/inkscape"
   width="210mm"
   height="297mm"
   id="svg2"
   version="1.1"
   inkscape:version="0.48.1 r9760"
   sodipodi:docname="blo_logo_sources.svg">
  <defs
     id="defs4" />
  <sodipodi:namedview
     id="base"
     pagecolor="#ffffff"
     bordercolor="#666666"
     borderopacity="1.0"
     inkscape:pageopacity="0.0"
     inkscape:pageshadow="2"
     inkscape:zoom="0.46091685"
     inkscape:cx="166.54424"
     inkscape:cy="628.18309"
     inkscape:document-units="px"
     inkscape:current-layer="layer1"
     showgrid="true"
     inkscape:snap-grids="false"
     inkscape:window-width="1328"
     inkscape:window-height="837"
     inkscape:window-x="0"
     inkscape:window-y="0"
     inkscape:window-maximized="0">
    <inkscape:grid
       type="xygrid"
       id="grid2985" />
  </sodipodi:namedview>
  <metadata
     id="metadata7">
    <rdf:RDF>
      <cc:Work
         rdf:about="">
        <dc:format>image/svg+xml</dc:format>
        <dc:type
           rdf:resource="http://purl.org/dc/dcmitype/StillImage" />
        <dc:title></dc:title>
      </cc:Work>
    </rdf:RDF>
  </metadata>
  <g
     inkscape:label="Calque 1"
     inkscape:groupmode="layer"
     id="layer1">
    <path
       inkscape:connector-curvature="0"
       id="path3856"
       d="m -506.91964,1671.25 0,9.0625 0,152.5 0,9.0625 18.125,0 0,-9.0625 0,-152.5 0,-9.0625 -18.125,0 z"
       style="font-size:medium;font-style:normal;font-variant:normal;font-weight:normal;font-stretch:normal;text-indent:0;text-align:start;text-decoration:none;line-height:normal;letter-spacing:normal;word-spacing:normal;text-transform:none;direction:ltr;block-progression:tb;writing-mode:lr-tb;text-anchor:start;baseline-shift:baseline;color:#000000;fill:#b50045;fill-opacity:1;stroke:none;stroke-width:18.10000038000000089;marker:none;visibility:visible;display:inline;overflow:visible;enable-background:accumulate;font-family:Sans;-inkscape-font-specification:Sans" />
    <path
       sodipodi:type="arc"
       style="opacity:0.4857143;fill:#8894aa;fill-opacity:1;stroke:none"
       id="path2987"
       sodipodi:cx="-900"
       sodipodi:cy="432.36218"
       sodipodi:rx="60"
       sodipodi:ry="60"
       d="m -840,432.36218 a 60,60 0 1 1 -120,0 60,60 0 1 1 120,0 z" />
    <rect
       style="opacity:0.4857143;fill:#8894aa;fill-opacity:1;stroke:none"
       id="rect2989"
       width="40"
       height="280"
       x="-980"
       y="212.36218" />
    <rect
       y="212.36218"
       x="-800"
       height="280"
       width="40"
       id="rect2991"
       style="opacity:0.4857143;fill:#8894aa;fill-opacity:1;stroke:none" />
    <path
       d="m -840,432.36218 a 60,60 0 1 1 -120,0 60,60 0 1 1 120,0 z"
       sodipodi:ry="60"
       sodipodi:rx="60"
       sodipodi:cy="432.36218"
       sodipodi:cx="-900"
       id="path2993"
       style="opacity:0.4857143;fill:#8894aa;fill-opacity:1;stroke:none"
       sodipodi:type="arc"
       transform="translate(240,0)" />
    <path
       d="m -840,432.36218 a 60,60 0 1 1 -120,0 60,60 0 1 1 120,0 z"
       sodipodi:ry="60"
       sodipodi:rx="60"
       sodipodi:cy="432.36218"
       sodipodi:cx="-900"
       id="path2995"
       style="opacity:1;fill:#000000;fill-opacity:1;stroke:none"
       sodipodi:type="arc"
       transform="translate(0,400)" />
    <rect
       y="712.36218"
       x="-960"
       height="180"
       width="20"
       id="rect2997"
       style="fill:#000000;fill-opacity:1;stroke:none" />
    <rect
       style="fill:#000000;fill-opacity:1;stroke:none"
       id="rect2999"
       width="20"
       height="180"
       x="-820"
       y="712.36218" />
    <path
       transform="translate(180,400)"
       sodipodi:type="arc"
       style="fill:#000000;fill-opacity:1;stroke:none"
       id="path3001"
       sodipodi:cx="-900"
       sodipodi:cy="432.36218"
       sodipodi:rx="60"
       sodipodi:ry="60"
       d="m -840,432.36218 a 60,60 0 1 1 -120,0 60,60 0 1 1 120,0 z" />
    <rect
       y="-960"
       x="-932.36218"
       height="300"
       width="20"
       id="rect3773"
       style="fill:#000000;fill-opacity:1;stroke:none"
       transform="matrix(0,-1,1,0,0,0)" />
    <path
       transform="matrix(0.875,0,0,0.875,-140,821.54528)"
       sodipodi:type="arc"
       style="fill:none;stroke:#000000;stroke-width:20.68571429;stroke-miterlimit:4;stroke-dasharray:none"
       id="path3775"
       sodipodi:cx="-900"
       sodipodi:cy="432.36218"
       sodipodi:rx="60"
       sodipodi:ry="60"
       d="m -840,432.36218 a 60,60 0 1 1 -120,0 60,60 0 1 1 120,0 z" />
    <rect
       style="fill:#000000;fill-opacity:1;stroke:none"
       id="rect3777"
       width="20"
       height="180"
       x="-960"
       y="1072.3622" />
    <rect
       y="1072.3622"
       x="-840"
       height="188.57143"
       width="20"
       id="rect3779"
       style="fill:#000000;fill-opacity:1;stroke:none" />
    <path
       d="m -840,432.36218 a 60,60 0 1 1 -120,0 60,60 0 1 1 120,0 z"
       sodipodi:ry="60"
       sodipodi:rx="60"
       sodipodi:cy="432.36218"
       sodipodi:cx="-900"
       id="path3789"
       style="fill:none;stroke:#000000;stroke-width:20.68571472;stroke-miterlimit:4;stroke-dasharray:none"
       sodipodi:type="arc"
       transform="matrix(0.875,0,0,0.875,55.714286,821.54528)" />
    <path
       d="m -840,432.36218 a 60,60 0 1 1 -120,0 60,60 0 1 1 120,0 z"
       sodipodi:ry="60"
       sodipodi:rx="60"
       sodipodi:cy="432.36218"
       sodipodi:cx="-900"
       id="path3791"
       style="fill:none;stroke:#000000;stroke-width:20.68571472;stroke-miterlimit:4;stroke-dasharray:none"
       sodipodi:type="arc"
       transform="matrix(0.875,0,0,0.875,-140,1120.1167)" />
    <path
       transform="matrix(0.875,0,0,0.875,27.142857,1120.1167)"
       sodipodi:type="arc"
       style="fill:none;stroke:#000000;stroke-width:20.68571472;stroke-miterlimit:4;stroke-dasharray:none"
       id="path3797"
       sodipodi:cx="-900"
       sodipodi:cy="432.36218"
       sodipodi:rx="60"
       sodipodi:ry="60"
       d="m -840,432.36218 a 60,60 0 1 1 -120,0 60,60 0 1 1 120,0 z" />
    <path
       style="fill:none;stroke:#000000;stroke-width:18.10000038;stroke-linecap:square;stroke-linejoin:miter;stroke-miterlimit:4;stroke-opacity:1;stroke-dasharray:none"
       d="m -945,1542.8094 0,-152.5096"
       id="path3799"
       inkscape:connector-curvature="0" />
    <path
       inkscape:connector-curvature="0"
       id="path3801"
       d="m -843.57143,1542.8094 0,-152.5096"
       style="fill:none;stroke:#000000;stroke-width:18.10000038;stroke-linecap:square;stroke-linejoin:miter;stroke-miterlimit:4;stroke-opacity:1;stroke-dasharray:none" />
    <path
       style="font-size:medium;font-style:normal;font-variant:normal;font-weight:normal;font-stretch:normal;text-indent:0;text-align:start;text-decoration:none;line-height:normal;letter-spacing:normal;word-spacing:normal;text-transform:none;direction:ltr;block-progression:tb;writing-mode:lr-tb;text-anchor:start;baseline-shift:baseline;color:#000000;fill:#1d19ff;fill-opacity:1;stroke:none;stroke-width:0;marker:none;visibility:visible;display:inline;overflow:visible;enable-background:accumulate;font-family:Sans;-inkscape-font-specification:Sans;stroke-miterlimit:4;stroke-dasharray:none"
       d="m -927.5,1726.894 c -33.88593,0 -61.55078,27.6649 -61.55078,61.5508 0,33.886 27.66485,61.5508 61.55078,61.5508 33.88593,0 61.55078,-27.6648 61.55078,-61.5508 0,-33.8859 -27.66485,-61.5508 -61.55078,-61.5508 z m 0,18.1016 c 24.10397,0 43.44922,19.3453 43.44922,43.4492 0,24.104 -19.34525,43.4492 -43.44922,43.4492 -24.10397,0 -43.44922,-19.3452 -43.44922,-43.4492 0,-24.1039 19.34525,-43.4492 43.44922,-43.4492 z"
       id="path3822"
       inkscape:connector-curvature="0" />
    <path
       style="font-size:medium;font-style:normal;font-variant:normal;font-weight:normal;font-stretch:normal;text-indent:0;text-align:start;text-decoration:none;line-height:normal;letter-spacing:normal;word-spacing:normal;text-transform:none;direction:ltr;block-progression:tb;writing-mode:lr-tb;text-anchor:start;baseline-shift:baseline;color:#000000;fill:#b50045;fill-opacity:1;stroke:none;stroke-width:0;marker:none;visibility:visible;display:inline;overflow:visible;enable-background:accumulate;font-family:Sans;-inkscape-font-specification:Sans;stroke-miterlimit:4;stroke-dasharray:none"
       d="m -760.35714,1726.894 c -33.88594,0 -61.55078,27.6649 -61.55078,61.5508 0,33.886 27.66484,61.5508 61.55078,61.5508 33.88593,0 61.55078,-27.6648 61.55078,-61.5508 0,-33.8859 -27.66485,-61.5508 -61.55078,-61.5508 z m 0,18.1016 c 24.10396,0 43.44922,19.3453 43.44922,43.4492 0,24.104 -19.34526,43.4492 -43.44922,43.4492 -24.10397,0 -43.44922,-19.3452 -43.44922,-43.4492 0,-24.1039 19.34525,-43.4492 43.44922,-43.4492 z"
       id="path3824"
       inkscape:connector-curvature="0" />
    <path
       style="font-size:medium;font-style:normal;font-variant:normal;font-weight:normal;font-stretch:normal;text-indent:0;text-align:start;text-decoration:none;line-height:normal;letter-spacing:normal;word-spacing:normal;text-transform:none;direction:ltr;block-progression:tb;writing-mode:lr-tb;text-anchor:start;baseline-shift:baseline;color:#000000;fill:#1d19ff;fill-opacity:1;stroke:none;stroke-width:18.10000038;marker:none;visibility:visible;display:inline;overflow:visible;enable-background:accumulate;font-family:Sans;-inkscape-font-specification:Sans"
       d="m -954.0625,1678.6853 0,154.1272 0,9.0625 18.125,0 0,-9.0625 0,-152.5 0,-9.0625 z"
       id="path3826"
       inkscape:connector-curvature="0"
       sodipodi:nodetypes="cccccccc" />
    <path
       style="font-size:medium;font-style:normal;font-variant:normal;font-weight:normal;font-stretch:normal;text-indent:0;text-align:start;text-decoration:none;line-height:normal;letter-spacing:normal;word-spacing:normal;text-transform:none;direction:ltr;block-progression:tb;writing-mode:lr-tb;text-anchor:start;baseline-shift:baseline;color:#000000;fill:#2db201;fill-opacity:1;stroke:none;stroke-width:18.10000038;marker:none;visibility:visible;display:inline;overflow:visible;enable-background:accumulate;font-family:Sans;-inkscape-font-specification:Sans"
       d="m -852.625,1678.6853 0,154.1272 0,9.0625 18.09375,0 0,-9.0625 0,-152.5 0,-9.0625 z"
       id="path3828"
       inkscape:connector-curvature="0"
       sodipodi:nodetypes="cccccccc" />
    <rect
       style="fill:#2db201;fill-opacity:1;stroke:none"
       id="rect3830"
       width="43.483765"
       height="34.901443"
       x="-1448.0443"
       y="1762.2107" />
    <rect
       y="1801.8026"
       x="-1448.0443"
       height="34.901443"
       width="43.483765"
       id="rect3832"
       style="fill:#1d19ff;fill-opacity:1;stroke:none" />
    <rect
       style="fill:#b50045;fill-opacity:1;stroke:none"
       id="rect3834"
       width="43.483765"
       height="34.901443"
       x="-1448.0443"
       y="1841.3947" />
    <path
       inkscape:connector-curvature="0"
       id="path3852"
       d="m -480.35714,1726.894 c -33.88593,0 -61.55078,27.6649 -61.55078,61.5508 0,33.886 27.66485,61.5508 61.55078,61.5508 33.88593,0 61.55078,-27.6648 61.55078,-61.5508 0,-33.8859 -27.66485,-61.5508 -61.55078,-61.5508 z m 0,18.1016 c 24.10397,0 43.44922,19.3453 43.44922,43.4492 0,24.104 -19.34525,43.4492 -43.44922,43.4492 -24.10397,0 -43.44922,-19.3452 -43.44922,-43.4492 0,-24.1039 19.34525,-43.4492 43.44922,-43.4492 z"
       style="font-size:medium;font-style:normal;font-variant:normal;font-weight:normal;font-stretch:normal;text-indent:0;text-align:start;text-decoration:none;line-height:normal;letter-spacing:normal;word-spacing:normal;text-transform:none;direction:ltr;block-progression:tb;writing-mode:lr-tb;text-anchor:start;baseline-shift:baseline;color:#000000;fill:#b50045;fill-opacity:0.96078432;stroke:none;stroke-width:20.68571472000000000;marker:none;visibility:visible;display:inline;overflow:visible;enable-background:accumulate;font-family:Sans;-inkscape-font-specification:Sans" />
    <path
       inkscape:connector-curvature="0"
       id="path3854"
       d="m -313.21428,1726.894 c -33.88594,0 -61.55078,27.6649 -61.55078,61.5508 0,33.886 27.66484,61.5508 61.55078,61.5508 33.88593,0 61.55078,-27.6648 61.55078,-61.5508 0,-33.8859 -27.66485,-61.5508 -61.55078,-61.5508 z m 0,18.1016 c 24.10396,0 43.44922,19.3453 43.44922,43.4492 0,24.104 -19.34526,43.4492 -43.44922,43.4492 -24.10397,0 -43.44922,-19.3452 -43.44922,-43.4492 0,-24.1039 19.34525,-43.4492 43.44922,-43.4492 z"
       style="font-size:medium;font-style:normal;font-variant:normal;font-weight:normal;font-stretch:normal;text-indent:0;text-align:start;text-decoration:none;line-height:normal;letter-spacing:normal;word-spacing:normal;text-transform:none;direction:ltr;block-progression:tb;writing-mode:lr-tb;text-anchor:start;baseline-shift:baseline;color:#000000;fill:#2db201;fill-opacity:1;stroke:none;stroke-width:20.68571472000000000;marker:none;visibility:visible;display:inline;overflow:visible;enable-background:accumulate;font-family:Sans;-inkscape-font-specification:Sans" />
    <path
       inkscape:connector-curvature="0"
       id="path3858"
       d="m -405.48214,1671.25 0,9.0625 0,152.5 0,9.0625 18.09375,0 0,-9.0625 0,-152.5 0,-9.0625 -18.09375,0 z"
       style="font-size:medium;font-style:normal;font-variant:normal;font-weight:normal;font-stretch:normal;text-indent:0;text-align:start;text-decoration:none;line-height:normal;letter-spacing:normal;word-spacing:normal;text-transform:none;direction:ltr;block-progression:tb;writing-mode:lr-tb;text-anchor:start;baseline-shift:baseline;color:#000000;fill:#1d19ff;fill-opacity:1;stroke:none;stroke-width:18.10000038000000089;marker:none;visibility:visible;display:inline;overflow:visible;enable-background:accumulate;font-family:Sans;-inkscape-font-specification:Sans" />
    <path
       style="font-size:medium;font-style:normal;font-variant:normal;font-weight:normal;font-stretch:normal;text-indent:0;text-align:start;text-decoration:none;line-height:normal;letter-spacing:normal;word-spacing:normal;text-transform:none;direction:ltr;block-progression:tb;writing-mode:lr-tb;text-anchor:start;baseline-shift:baseline;color:#000000;fill:#2db201;fill-opacity:1;stroke:none;stroke-width:18.10000038;marker:none;visibility:visible;display:inline;overflow:visible;enable-background:accumulate;font-family:Sans;-inkscape-font-specification:Sans"
       d="m -500.85872,1923.7882 0,9.0625 0,152.5 0,9.0625 18.125,0 0,-9.0625 0,-152.5 0,-9.0625 -18.125,0 z"
       id="path3860"
       inkscape:connector-curvature="0" />
    <path
       style="font-size:medium;font-style:normal;font-variant:normal;font-weight:normal;font-stretch:normal;text-indent:0;text-align:start;text-decoration:none;line-height:normal;letter-spacing:normal;word-spacing:normal;text-transform:none;direction:ltr;block-progression:tb;writing-mode:lr-tb;text-anchor:start;baseline-shift:baseline;color:#000000;fill:#2db201;fill-opacity:1;stroke:none;stroke-width:20.68571472;marker:none;visibility:visible;display:inline;overflow:visible;enable-background:accumulate;font-family:Sans;-inkscape-font-specification:Sans"
       d="m -474.29622,1979.4322 c -33.88593,0 -61.55078,27.6649 -61.55078,61.5508 0,33.886 27.66485,61.5508 61.55078,61.5508 33.88593,0 61.55078,-27.6648 61.55078,-61.5508 0,-33.8859 -27.66485,-61.5508 -61.55078,-61.5508 z m 0,18.1016 c 24.10397,0 43.44922,19.3453 43.44922,43.4492 0,24.104 -19.34525,43.4492 -43.44922,43.4492 -24.10397,0 -43.44922,-19.3452 -43.44922,-43.4492 0,-24.1039 19.34525,-43.4492 43.44922,-43.4492 z"
       id="path3862"
       inkscape:connector-curvature="0" />
    <path
       style="font-size:medium;font-style:normal;font-variant:normal;font-weight:normal;font-stretch:normal;text-indent:0;text-align:start;text-decoration:none;line-height:normal;letter-spacing:normal;word-spacing:normal;text-transform:none;direction:ltr;block-progression:tb;writing-mode:lr-tb;text-anchor:start;baseline-shift:baseline;color:#000000;fill:#b50045;fill-opacity:1;stroke:none;stroke-width:20.68571472;marker:none;visibility:visible;display:inline;overflow:visible;enable-background:accumulate;font-family:Sans;-inkscape-font-specification:Sans"
       d="m -307.15336,1979.4322 c -33.88594,0 -61.55078,27.6649 -61.55078,61.5508 0,33.886 27.66484,61.5508 61.55078,61.5508 33.88593,0 61.55078,-27.6648 61.55078,-61.5508 0,-33.8859 -27.66485,-61.5508 -61.55078,-61.5508 z m 0,18.1016 c 24.10396,0 43.44922,19.3453 43.44922,43.4492 0,24.104 -19.34526,43.4492 -43.44922,43.4492 -24.10397,0 -43.44922,-19.3452 -43.44922,-43.4492 0,-24.1039 19.34525,-43.4492 43.44922,-43.4492 z"
       id="path3864"
       inkscape:connector-curvature="0" />
    <path
       style="font-size:medium;font-style:normal;font-variant:normal;font-weight:normal;font-stretch:normal;text-indent:0;text-align:start;text-decoration:none;line-height:normal;letter-spacing:normal;word-spacing:normal;text-transform:none;direction:ltr;block-progression:tb;writing-mode:lr-tb;text-anchor:start;baseline-shift:baseline;color:#000000;fill:#1d19ff;fill-opacity:1;stroke:none;stroke-width:18.10000038;marker:none;visibility:visible;display:inline;overflow:visible;enable-background:accumulate;font-family:Sans;-inkscape-font-specification:Sans"
       d="m -399.42122,1923.7882 0,9.0625 0,152.5 0,9.0625 18.09375,0 0,-9.0625 0,-152.5 0,-9.0625 -18.09375,0 z"
       id="path3866"
       inkscape:connector-curvature="0" />
    <path
       inkscape:connector-curvature="0"
       id="path3868"
       d="m -927.5,2251.9345 c -33.88593,0 -61.55078,27.6649 -61.55078,61.5508 0,33.886 27.66485,61.5508 61.55078,61.5508 33.88593,0 61.55078,-27.6648 61.55078,-61.5508 0,-33.8859 -27.66485,-61.5508 -61.55078,-61.5508 z m 0,18.1016 c 24.10397,0 43.44922,19.3453 43.44922,43.4492 0,24.104 -19.34525,43.4492 -43.44922,43.4492 -24.10397,0 -43.44922,-19.3452 -43.44922,-43.4492 0,-24.1039 19.34525,-43.4492 43.44922,-43.4492 z"
       style="font-size:medium;font-style:normal;font-variant:normal;font-weight:normal;font-stretch:normal;text-indent:0;text-align:start;text-decoration:none;line-height:normal;letter-spacing:normal;word-spacing:normal;text-transform:none;direction:ltr;block-progression:tb;writing-mode:lr-tb;text-anchor:start;baseline-shift:baseline;color:#000000;fill:#1d19ff;fill-opacity:1;stroke:none;stroke-width:0;marker:none;visibility:visible;display:inline;overflow:visible;enable-background:accumulate;font-family:Sans;-inkscape-font-specification:Sans" />
    <path
       inkscape:connector-curvature="0"
       id="path3870"
       d="m -760.35714,2251.9345 c -33.88594,0 -61.55078,27.6649 -61.55078,61.5508 0,33.886 27.66484,61.5508 61.55078,61.5508 33.88593,0 61.55078,-27.6648 61.55078,-61.5508 0,-33.8859 -27.66485,-61.5508 -61.55078,-61.5508 z m 0,18.1016 c 24.10396,0 43.44922,19.3453 43.44922,43.4492 0,24.104 -19.34526,43.4492 -43.44922,43.4492 -24.10397,0 -43.44922,-19.3452 -43.44922,-43.4492 0,-24.1039 19.34525,-43.4492 43.44922,-43.4492 z"
       style="font-size:medium;font-style:normal;font-variant:normal;font-weight:normal;font-stretch:normal;text-indent:0;text-align:start;text-decoration:none;line-height:normal;letter-spacing:normal;word-spacing:normal;text-transform:none;direction:ltr;block-progression:tb;writing-mode:lr-tb;text-anchor:start;baseline-shift:baseline;color:#000000;fill:#b50045;fill-opacity:1;stroke:none;stroke-width:0;marker:none;visibility:visible;display:inline;overflow:visible;enable-background:accumulate;font-family:Sans;-inkscape-font-specification:Sans" />
    <path
       sodipodi:nodetypes="cccccccc"
       inkscape:connector-curvature="0"
       id="path3872"
       d="m -954.0625,2162.2249 0,193.3234 0,11.3672 30.05774,0 0,-11.3672 0,-191.2824 0,-11.3672 z"
       style="font-size:medium;font-style:normal;font-variant:normal;font-weight:normal;font-stretch:normal;text-indent:0;text-align:start;text-decoration:none;line-height:normal;letter-spacing:normal;word-spacing:normal;text-transform:none;direction:ltr;block-progression:tb;writing-mode:lr-tb;text-anchor:start;baseline-shift:baseline;color:#000000;fill:#1d19ff;fill-opacity:1;stroke:none;stroke-width:18.10000038;marker:none;visibility:visible;display:inline;overflow:visible;enable-background:accumulate;font-family:Sans;-inkscape-font-specification:Sans" />
    <path
       style="font-size:medium;font-style:normal;font-variant:normal;font-weight:normal;font-stretch:normal;text-indent:0;text-align:start;text-decoration:none;line-height:normal;letter-spacing:normal;word-spacing:normal;text-transform:none;direction:ltr;block-progression:tb;writing-mode:lr-tb;text-anchor:start;baseline-shift:baseline;color:#000000;fill:#1d19ff;fill-opacity:1;stroke:none;stroke-width:18.10000038;marker:none;visibility:visible;display:inline;overflow:visible;enable-background:accumulate;font-family:Sans;-inkscape-font-specification:Sans"
       d="m -859.68539,2162.2249 0,193.3234 0,11.3672 30.05774,0 0,-11.3672 0,-191.2824 0,-11.3672 z"
       id="path3876"
       inkscape:connector-curvature="0"
       sodipodi:nodetypes="cccccccc" />
    <path
       inkscape:connector-curvature="0"
       id="path3878"
       d="m -927.5,2727.1473 c -33.88593,0 -61.55078,27.6649 -61.55078,61.5508 0,33.886 27.66485,61.5508 61.55078,61.5508 33.88593,0 61.55078,-27.6648 61.55078,-61.5508 0,-33.8859 -27.66485,-61.5508 -61.55078,-61.5508 z m 0,18.1016 c 24.10397,0 43.44922,19.3453 43.44922,43.4492 0,24.104 -19.34525,43.4492 -43.44922,43.4492 -24.10397,0 -43.44922,-19.3452 -43.44922,-43.4492 0,-24.1039 19.34525,-43.4492 43.44922,-43.4492 z"
       style="font-size:medium;font-style:normal;font-variant:normal;font-weight:normal;font-stretch:normal;text-indent:0;text-align:start;text-decoration:none;line-height:normal;letter-spacing:normal;word-spacing:normal;text-transform:none;direction:ltr;block-progression:tb;writing-mode:lr-tb;text-anchor:start;baseline-shift:baseline;color:#000000;fill:#1d19ff;fill-opacity:1;stroke:none;stroke-width:0;marker:none;visibility:visible;display:inline;overflow:visible;enable-background:accumulate;font-family:Sans;-inkscape-font-specification:Sans" />
    <path
       inkscape:connector-curvature="0"
       id="path3880"
       d="m -760.35714,2727.1473 c -33.88594,0 -61.55078,27.6649 -61.55078,61.5508 0,33.886 27.66484,61.5508 61.55078,61.5508 33.88593,0 61.55078,-27.6648 61.55078,-61.5508 0,-33.8859 -27.66485,-61.5508 -61.55078,-61.5508 z m 0,18.1016 c 24.10396,0 43.44922,19.3453 43.44922,43.4492 0,24.104 -19.34526,43.4492 -43.44922,43.4492 -24.10397,0 -43.44922,-19.3452 -43.44922,-43.4492 0,-24.1039 19.34525,-43.4492 43.44922,-43.4492 z"
       style="font-size:medium;font-style:normal;font-variant:normal;font-weight:normal;font-stretch:normal;text-indent:0;text-align:start;text-decoration:none;line-height:normal;letter-spacing:normal;word-spacing:normal;text-transform:none;direction:ltr;block-progression:tb;writing-mode:lr-tb;text-anchor:start;baseline-shift:baseline;color:#000000;fill:#1d19ff;fill-opacity:1;stroke:none;stroke-width:0;marker:none;visibility:visible;display:inline;overflow:visible;enable-background:accumulate;font-family:Sans;-inkscape-font-specification:Sans" />
    <path
       sodipodi:nodetypes="cccccccc"
       inkscape:connector-curvature="0"
       id="path3882"
       d="m -954.0625,2678.9386 0,154.1272 0,9.0625 18.125,0 0,-9.0625 0,-152.5 0,-9.0625 z"
       style="font-size:medium;font-style:normal;font-variant:normal;font-weight:normal;font-stretch:normal;text-indent:0;text-align:start;text-decoration:none;line-height:normal;letter-spacing:normal;word-spacing:normal;text-transform:none;direction:ltr;block-progression:tb;writing-mode:lr-tb;text-anchor:start;baseline-shift:baseline;color:#000000;fill:#1d19ff;fill-opacity:1;stroke:none;stroke-width:18.10000038;marker:none;visibility:visible;display:inline;overflow:visible;enable-background:accumulate;font-family:Sans;-inkscape-font-specification:Sans" />
    <path
       sodipodi:nodetypes="cccccccc"
       inkscape:connector-curvature="0"
       id="path3884"
       d="m -852.625,2678.9386 0,154.1272 0,9.0625 18.09375,0 0,-9.0625 0,-152.5 0,-9.0625 z"
       style="font-size:medium;font-style:normal;font-variant:normal;font-weight:normal;font-stretch:normal;text-indent:0;text-align:start;text-decoration:none;line-height:normal;letter-spacing:normal;word-spacing:normal;text-transform:none;direction:ltr;block-progression:tb;writing-mode:lr-tb;text-anchor:start;baseline-shift:baseline;color:#000000;fill:#1d19ff;fill-opacity:1;stroke:none;stroke-width:18.10000038000000089;marker:none;visibility:visible;display:inline;overflow:visible;enable-background:accumulate;font-family:Sans;-inkscape-font-specification:Sans" />
    <path
       inkscape:connector-curvature="0"
       id="path3886"
       d="m 281.39514,316.77999 c -33.88593,0 -61.55078,27.6649 -61.55078,61.5508 0,33.886 27.66485,61.5508 61.55078,61.5508 33.88593,0 61.55078,-27.6648 61.55078,-61.5508 0,-33.8859 -27.66485,-61.5508 -61.55078,-61.5508 z m 0,18.1016 c 24.10397,0 43.44922,19.3453 43.44922,43.4492 0,24.104 -19.34525,43.4492 -43.44922,43.4492 -24.10397,0 -43.44922,-19.3452 -43.44922,-43.4492 0,-24.1039 19.34525,-43.4492 43.44922,-43.4492 z"
       style="font-size:medium;font-style:normal;font-variant:normal;font-weight:normal;font-stretch:normal;text-indent:0;text-align:start;text-decoration:none;line-height:normal;letter-spacing:normal;word-spacing:normal;text-transform:none;direction:ltr;block-progression:tb;writing-mode:lr-tb;text-anchor:start;baseline-shift:baseline;color:#000000;fill:#1d19ff;fill-opacity:1;stroke:none;stroke-width:0;marker:none;visibility:visible;display:inline;overflow:visible;enable-background:accumulate;font-family:Sans;-inkscape-font-specification:Sans"
       inkscape:export-filename="/Users/raphael/Documents/WORK/PERSO/blo/logo/logo.png"
       inkscape:export-xdpi="287.44739"
       inkscape:export-ydpi="287.44739" />
    <path
       inkscape:connector-curvature="0"
       id="path3888"
       d="m 448.538,316.77999 c -33.88594,0 -61.55078,27.6649 -61.55078,61.5508 0,33.886 27.66484,61.5508 61.55078,61.5508 33.88593,0 61.55078,-27.6648 61.55078,-61.5508 0,-33.8859 -27.66485,-61.5508 -61.55078,-61.5508 z m 0,18.1016 c 24.10396,0 43.44922,19.3453 43.44922,43.4492 0,24.104 -19.34526,43.4492 -43.44922,43.4492 -24.10397,0 -43.44922,-19.3452 -43.44922,-43.4492 0,-24.1039 19.34525,-43.4492 43.44922,-43.4492 z"
       style="font-size:medium;font-style:normal;font-variant:normal;font-weight:normal;font-stretch:normal;text-indent:0;text-align:start;text-decoration:none;line-height:normal;letter-spacing:normal;word-spacing:normal;text-transform:none;direction:ltr;block-progression:tb;writing-mode:lr-tb;text-anchor:start;baseline-shift:baseline;color:#000000;fill:#b50045;fill-opacity:1;stroke:none;stroke-width:0;marker:none;visibility:visible;display:inline;overflow:visible;enable-background:accumulate;font-family:Sans;-inkscape-font-specification:Sans"
       inkscape:export-filename="/Users/raphael/Documents/WORK/PERSO/blo/logo/logo.png"
       inkscape:export-xdpi="287.44739"
       inkscape:export-ydpi="287.44739" />
    <path
       sodipodi:nodetypes="cccccccc"
       inkscape:connector-curvature="0"
       id="path3890"
       d="m 254.83264,268.57129 0,154.1272 0,9.0625 18.125,0 0,-9.0625 0,-152.5 0,-9.0625 z"
       style="font-size:medium;font-style:normal;font-variant:normal;font-weight:normal;font-stretch:normal;text-indent:0;text-align:start;text-decoration:none;line-height:normal;letter-spacing:normal;word-spacing:normal;text-transform:none;direction:ltr;block-progression:tb;writing-mode:lr-tb;text-anchor:start;baseline-shift:baseline;color:#000000;fill:#1d19ff;fill-opacity:1;stroke:none;stroke-width:18.10000038;marker:none;visibility:visible;display:inline;overflow:visible;enable-background:accumulate;font-family:Sans;-inkscape-font-specification:Sans"
       inkscape:export-filename="/Users/raphael/Documents/WORK/PERSO/blo/logo/logo.png"
       inkscape:export-xdpi="287.44739"
       inkscape:export-ydpi="287.44739" />
    <path
       sodipodi:nodetypes="cccccccc"
       inkscape:connector-curvature="0"
       id="path3892"
       d="m 356.27014,268.57129 0,154.1272 0,9.0625 18.09375,0 0,-9.0625 0,-152.5 0,-9.0625 z"
       style="font-size:medium;font-style:normal;font-variant:normal;font-weight:normal;font-stretch:normal;text-indent:0;text-align:start;text-decoration:none;line-height:normal;letter-spacing:normal;word-spacing:normal;text-transform:none;direction:ltr;block-progression:tb;writing-mode:lr-tb;text-anchor:start;baseline-shift:baseline;color:#000000;fill:#2db201;fill-opacity:1;stroke:none;stroke-width:18.10000038;marker:none;visibility:visible;display:inline;overflow:visible;enable-background:accumulate;font-family:Sans;-inkscape-font-specification:Sans"
       inkscape:export-filename="/Users/raphael/Documents/WORK/PERSO/blo/logo/logo.png"
       inkscape:export-xdpi="287.44739"
       inkscape:export-ydpi="287.44739" />
  </g>
</svg>
